# xmcd
#
# Track frame offsets:
#	150
#	19777
#	36059
#	55837
#	74058
#	88787
#	103338
#	119658
#	131775
#	148962
#	165032
#	186341
#	203962
#	221222
#	238497
#	257753
#
# Disc length: 3685 seconds
#
# Revision: 1
# Processed by: cddbd v1.5.2PL0 Copyright (c) Steve Scherf et al.
# Submitted via: audiograbber 1.83.01
#
DISCID=050e6310
DTITLE=George Strait  - Chartbusters Karaoke Disk 3
DYEAR=1900
DGENRE=Country
TTITLE0=Carrying Your Love With Me
TTITLE1=King Of The Mountain
TTITLE2=I Can Still Make Cheyenne
TTITLE3=One Night At A Time
TTITLE4=Today My World Slipped Away
TTITLE5=Round About Way
TTITLE6=I Just Want To Dance With You
TTITLE7=We Really Shouldn't Be Doing This
TTITLE8=Write This Down
TTITLE9=Best Day, The
TTITLE10=If You Can Do Anything Else
TTITLE11=Go On
TTITLE12=Living And Living Well
TTITLE13=Cowboys Like Us
TTITLE14=Desperately
TTITLE15=I Hate Everything
EXTD=
EXTT0=
EXTT1=
EXTT2=
EXTT3=
EXTT4=
EXTT5=
EXTT6=
EXTT7=
EXTT8=
EXTT9=
EXTT10=
EXTT11=
EXTT12=
EXTT13=
EXTT14=
EXTT15=
PLAYORDER=
